<?xml version="1.0" encoding="utf-8"?>
<!-- Generator: Adobe Illustrator 18.1.1, SVG Export Plug-In . SVG Version: 6.00 Build 0)  -->
<svg version="1.1" id="Layer_1" xmlns="http://www.w3.org/2000/svg" xmlns:xlink="http://www.w3.org/1999/xlink" x="0px" y="0px"
	 width="196px" height="226.3px" viewBox="0 0 196 226.3" enable-background="new 0 0 196 226.3" xml:space="preserve">
<g>
	<path fill="#2AD4FF" d="M33.1,20.5L15.6,38l17.5,17.5L25.6,63L3.1,38l22.5-25L33.1,20.5z M73.1,38L50.6,63l-7.5-7.5L60.6,38
		L43.1,20.5l7.5-7.5L73.1,38z"/>
</g>
<g>
	<path fill="#2AD4FF" d="M49.8,93.4c2.9,2.9,4.5,6.6,4.6,11.1c-0.2,4.3-1.8,9.4-4.9,15.2c-3.1,5.8-6.7,12.2-10.7,19.2
		c-4.1-7-7.6-13.4-10.7-19.2c-3.1-5.8-4.7-10.8-4.9-15.2c0.1-4.4,1.6-8.1,4.6-11.1c2.9-2.9,6.6-4.5,11.1-4.6
		C43.2,88.9,46.9,90.4,49.8,93.4z M43.2,108.9c1.2-1.2,1.8-2.7,1.8-4.4c0-1.8-0.6-3.3-1.8-4.4s-2.7-1.8-4.4-1.8
		c-1.8,0-3.3,0.6-4.4,1.8s-1.8,2.7-1.8,4.4c0,1.8,0.6,3.3,1.8,4.4s2.7,1.8,4.4,1.8C40.5,110.7,42,110.1,43.2,108.9z"/>
</g>
<polygon fill="#FFFFFF" points="187,120.7 137,149.4 87,120.7 87,63.3 137,34.6 187,63.3 "/>
<g>
	<path fill="#2AD4FF" d="M57.5,186.1c1.2,1.2,1.8,2.7,1.8,4.4v3.1c0,1.2-0.3,2.2-0.9,3.1c-0.6,0.9-1.3,1.7-2.3,2.2v10.3H43.7v6.2
		H31.2v-6.2H18.7V199c-0.9-0.6-1.7-1.3-2.3-2.2c-0.6-0.9-0.9-2-0.9-3.1v-3.1c0-1.8,0.6-3.2,1.8-4.4c1.2-1.2,2.7-1.8,4.4-1.8H50h3.1
		C54.9,184.3,56.4,184.9,57.5,186.1z M28.2,183.4c-0.9,0.6-2,0.9-3.2,0.9c-1.8,0-3.2-0.6-4.4-1.8c-1.2-1.2-1.8-2.7-1.8-4.4
		c0-1.8,0.6-3.2,1.8-4.4c1.2-1.2,2.7-1.8,4.4-1.8c1.3,0,2.4,0.4,3.4,1c0.5-2.1,1.6-3.8,3.2-5.2c1.6-1.4,3.6-2,5.9-2.1
		c2.3,0,4.2,0.7,5.9,2.1c1.6,1.4,2.7,3.1,3.2,5.2c1-0.7,2.1-1,3.4-1c1.8,0,3.2,0.6,4.4,1.8c1.2,1.2,1.8,2.7,1.8,4.4
		c0,1.8-0.6,3.2-1.8,4.4c-1.2,1.2-2.7,1.8-4.4,1.8c-1.2,0-2.3-0.3-3.2-0.9c-0.9-0.6-1.7-1.4-2.2-2.4c-0.8,1-1.9,1.8-3.1,2.4
		c-1.2,0.6-2.5,0.9-4,0.9c-1.4,0-2.8-0.3-4-0.9c-1.2-0.6-2.2-1.4-3.1-2.4C29.9,182,29.2,182.8,28.2,183.4z M28.1,202.2
		c-0.9-0.6-1.7-1.3-2.3-2.2c-0.6-0.9-0.9-2-0.9-3.1v-6.2c0-1.1,0.3-2.2,0.9-3.1h-4c-0.9,0-1.6,0.3-2.2,0.9s-0.9,1.3-0.9,2.2v3.1h3.1
		v12.5h6.2V202.2z M27.2,180.2c0.6-0.6,0.9-1.3,0.9-2.2s-0.3-1.6-0.9-2.2S25.9,175,25,175s-1.6,0.3-2.2,0.9s-0.9,1.3-0.9,2.2
		s0.3,1.6,0.9,2.2s1.3,0.9,2.2,0.9C25.9,181.1,26.6,180.8,27.2,180.2z M45.9,199c0.6-0.6,0.9-1.3,0.9-2.2v-6.2
		c0-0.9-0.3-1.6-0.9-2.2s-1.3-0.9-2.2-0.9H31.2c-0.9,0-1.6,0.3-2.2,0.9s-0.9,1.3-0.9,2.2v6.2c0,0.9,0.3,1.6,0.9,2.2s1.3,0.9,2.2,0.9
		v-6.2h3.1v18.8h6.2v-18.8h3.1v6.2C44.6,199.9,45.4,199.6,45.9,199z M33.1,170.5c-1.2,1.2-1.8,2.7-1.8,4.4c0,1.8,0.6,3.2,1.8,4.4
		c1.2,1.2,2.7,1.8,4.4,1.8c1.8,0,3.2-0.6,4.4-1.8c1.2-1.2,1.8-2.7,1.8-4.4c0-1.8-0.6-3.2-1.8-4.4c-1.2-1.2-2.7-1.8-4.4-1.8
		C35.7,168.7,34.3,169.3,33.1,170.5z M56.2,190.5c0-0.9-0.3-1.6-0.9-2.2s-1.3-0.9-2.2-0.9h-4c0.6,0.9,0.8,2,0.9,3.1v6.2
		c0,1.2-0.3,2.2-0.9,3.1c-0.6,0.9-1.3,1.7-2.3,2.2v4h6.2v-12.5h3.1V190.5z M47.8,175.8c-0.6,0.6-0.9,1.3-0.9,2.2s0.3,1.6,0.9,2.2
		s1.3,0.9,2.2,0.9s1.6-0.3,2.2-0.9s0.9-1.3,0.9-2.2s-0.3-1.6-0.9-2.2s-1.3-0.9-2.2-0.9C49.1,174.9,48.4,175.3,47.8,175.8z"/>
</g>
<g>
	<path fill="#FFFFFF" d="M97.8,15.5L90,23.3l-3.1-3.1l4.7-4.7l-4.7-4.7L90,7.7L97.8,15.5z"/>
</g>
<g>
	<polygon fill="#45BBFC" points="86,170 107,157.9 128,170 128,194.2 107,206.3 86,194.2 	"/>
</g>
</svg>
