<?xml version="1.0" encoding="utf-8"?>
<!-- Generator: Adobe Illustrator 18.1.1, SVG Export Plug-In . SVG Version: 6.00 Build 0)  -->
<svg version="1.1" id="Layer_1" xmlns="http://www.w3.org/2000/svg" xmlns:xlink="http://www.w3.org/1999/xlink" x="0px" y="0px"
	 width="500px" height="500px" viewBox="0 0 500 500" enable-background="new 0 0 500 500" xml:space="preserve">
<linearGradient id="polygon3755-2-6-0-3-6-3-3_1_" gradientUnits="userSpaceOnUse" x1="365.4002" y1="-234.4613" x2="366.7849" y2="481.9212" gradientTransform="matrix(0.6524 0 0 0.6524 10.5771 169.4303)">
	<stop  offset="0" style="stop-color:#2AD4FF"/>
	<stop  offset="1" style="stop-color:#EB4DDF"/>
</linearGradient>
<polygon id="polygon3755-2-6-0-3-6-3-3" fill="url(#polygon3755-2-6-0-3-6-3-3_1_)" points="
	249.5,15.1 452.9,132.6 452.9,367.8 249.5,485.1 46,367.8 46,132.6 ">
</polygon>
<g>
	<path fill="#FFFFFF" d="M249.5,321.4c3.2,0,5.9-2.7,5.9-5.9s-2.7-5.9-5.9-5.9c-3.2,0-5.9,2.7-5.9,5.9S246.3,321.4,249.5,321.4z
		 M249.5,315c0.3,0,0.5,0.2,0.5,0.5s-0.2,0.5-0.5,0.5c-0.3,0-0.5-0.2-0.5-0.5S249.2,315,249.5,315z"/>
	<path fill="#FFFFFF" d="M129.3,267.9H108h-0.2c-1,0.2-2,1.2-2,2.2v61.3c0,1.2,1,2.2,2.2,2.2h21.3c1.2,0,2.2-1,2.2-2.2v-61.3
		C131.5,269.1,130.5,267.9,129.3,267.9z M127.1,329.3h-17v-57h17V329.3z"/>
	<path fill="#FFFFFF" d="M87.1,267.9H65.8h-0.2c-1,0.2-2,1.2-2,2.2v61.3c0,1.2,1,2.2,2.2,2.2h21.3c1.2,0,2.2-1,2.2-2.2v-61.3
		C89.3,269.1,88.3,267.9,87.1,267.9z M85,329.3H68v-57h17V329.3z"/>
	<path fill="#FFFFFF" d="M410.7,333.6H432c1.2,0,2.2-1,2.2-2.2v-61.3c0-1.2-1-2.2-2.2-2.2h-21.3h-0.2c-1,0.2-2,1.2-2,2.2v61.3
		C408.5,332.6,409.5,333.6,410.7,333.6z M412.9,272.3h17v57h-17V272.3z"/>
	<path fill="#FFFFFF" d="M326.3,333.6h21.3c1.2,0,2.2-1,2.2-2.2v-61.3c0-1.2-1-2.2-2.2-2.2h-21.3h-0.2c-1,0.2-2,1.2-2,2.2v61.3
		C324.1,332.6,325.1,333.6,326.3,333.6z M328.5,272.3h17v57h-17V272.3z"/>
	<path fill="#FFFFFF" d="M368.5,333.6h21.3c1.2,0,2.2-1,2.2-2.2v-61.3c0-1.2-1-2.2-2.2-2.2h-21.3h-0.2c-1,0.2-2,1.2-2,2.2v61.3
		C366.3,332.6,367.3,333.6,368.5,333.6z M370.7,272.3h17v57h-17V272.3z"/>
	<path fill="#FFFFFF" d="M199.2,393c-0.5-0.7-1.2-0.8-1.8-0.5c-0.7,0.5-0.8,1.2-0.5,1.8l4.9,8.4c0.5,0.7,1.2,0.8,1.8,0.5l5.5-3.2
		c0.5-0.3,0.8-1.2,0.5-1.7c-0.3-0.5-1.2-0.8-1.7-0.5l-4.4,2.5L199.2,393z"/>
	<path fill="#FFFFFF" d="M241.9,448.9l-74.1-42.7c-1-0.5-2.2-0.2-2.7,0.8c-0.5,1-0.2,2.2,0.8,2.7l83.2,48.1c0,0,0,0,0.2,0
		s0.2,0.2,0.2,0.2s0,0,0.2,0c0,0,0,0,0.2,0h0.2c0.2,0,0.3,0.2,0.5,0.2c0.2,0,0.3,0,0.5-0.2h0.2h0.2c0.2,0,0.2-0.2,0.2-0.2s0,0,0.2,0
		l81.9-47.2c0.8-0.5,1.2-1.7,0.5-2.7l0,0c-0.5-1-1.8-1.3-2.7-0.8l-72.8,42l30.9-39.5c0.7-0.8,0.5-2.2-0.3-2.9
		c-0.8-0.7-2.2-0.5-2.9,0.3l-33.8,43v-42.2c0-1.2-0.8-2-2-2s-2,0.8-2,2v42.2l-33.8-43c-0.7-0.8-2-1-2.9-0.3c-0.8,0.7-1,2-0.3,2.9
		L241.9,448.9z"/>
	<circle fill="#FFFFFF" cx="339.1" cy="403.9" r="2.5"/>
	<circle fill="#FFFFFF" cx="159.7" cy="403.9" r="2.5"/>
	<path fill="#FFFFFF" d="M245.3,395.8c0.5,0,1-0.3,1.2-0.8l0.8-1.8h5l0.8,1.7c0.2,0.5,0.7,0.8,1.2,0.8c0.7,0,1.2-0.5,1.2-1.2
		c0-0.2,0-0.3-0.2-0.5l-3.9-9.1c-0.2-0.7-0.8-1-1.3-1H250c-0.7,0-1.2,0.3-1.3,1l-3.9,9.1l0,0c-0.2,0.2-0.2,0.3-0.5,0.5
		C244,395.3,244.6,395.8,245.3,395.8z M250,387.1l1.5,3.7h-3L250,387.1z"/>
	<path fill="#FFFFFF" d="M288.7,400.7c0.5,0.3,1,0.2,1.5,0l4.2-1.7l0.7,4.7c0.2,0.5,0.2,0.8,0.8,1.2c0.7,0.5,1.5,0.2,1.8-0.5
		c0.2-0.3,0.2-0.8,0.2-1.2l-0.8-5.2l4.5-1.7c0.5-0.2,0.7-0.3,0.8-0.7c0.5-0.7,0.2-1.3-0.5-1.7c-0.5-0.3-1-0.2-1.5,0l-4,1.7l-0.5-4.5
		c-0.2-0.5-0.2-0.8-0.8-1.2c-0.7-0.5-1.5-0.2-1.8,0.5c-0.2,0.3-0.2,0.8-0.2,1.2l0.8,4.9l-4.9,1.8c-0.5,0.2-0.7,0.3-0.8,0.7
		C287.8,399.9,288.2,400.4,288.7,400.7z"/>
	<path fill="#FFFFFF" d="M458.4,123.2L255,5.7c-3.4-2-7.6-2-10.9,0L40.6,123.2c-3.4,2-5.4,5.5-5.4,9.4v235c0,3.9,2,7.6,5.5,9.4
		l203.5,117.5c1.7,1,3.5,1.5,5.4,1.5s3.7-0.5,5.4-1.5L458.4,377c3.4-2,5.4-5.5,5.4-9.4v-235C463.8,128.7,461.8,125.2,458.4,123.2z
		 M56.9,204.2c10.9-6.1,21.7-7.6,29.6-7.6c6.1,0,10.3,0.7,11.4,1c1.5,0.3,3.2-1.5,2.5-3c-0.3-1-1.8-4.4-2.7-9.7
		c-1.8-10.6-1.8-27.9,11.9-44.7c8.9-10.9,20-15.8,30.1-17.8v0.2c1.7-0.3,3.4-0.5,5-0.7c0-0.2,0.2-0.2,0.2-0.3
		c1.8-0.2,3.9-0.3,5.5-0.3c4.7,0,8.7,0.3,11.6,0.8c1.5,0.2,2.5,0.5,3.4,0.7c0.3,0.2,0.7,0.2,0.8,0.2s0.2,0,0.2,0l0,0l0,0
		c0.7,0.2,0.5,0.2,1,0.3c-7.9,1.5-13.4,4.4-18.2,9.2c-0.8,0.8-0.7,2.7,0.3,3.4l2.4,1.7c-2.2,0.5-4.5,1.2-6.6,2c-2.2,0.8-4,2-5.7,3
		c-1.5,1-2.7,1.8-3.5,3.2c-0.7,1-0.3,2.4,0.5,3l1.5,1c-2.9,0.5-5.9,1.3-8.7,2.5c-5,2-9.4,4.9-12.1,8.1c-0.7,0.8-0.5,2.5,0.3,3.2
		l3,2.2c-2.5,1-5,2.5-7.1,4.4c-3.4,3-7.2,9.2-7.2,9.2l-2.4,3.5l-0.2,0.2c-0.5,1-0.3,2.4,0.5,2.9c0.8,0.7,2.2,0.5,3-0.3l0.2-0.2
		c6.7-8.4,18.8-18.7,38.8-20.3c34.3-2.9,51.6,29.1,51.8,29.2l0,0c0.3,0.7,0.2,0.5,0.5,1c-6.6-4.5-12.6-6.7-19.2-6.7
		c-1.3,0-2.4,1.3-2.2,2.5l0.5,2.9c-1.8-1.3-4-2.4-6.1-3.2c-2.2-0.8-4.2-1.7-6.1-2c-1.8-0.5-3.4-0.7-4.9-0.3c-1,0.2-1.8,1.3-1.7,2.5
		l0.3,1.8c-2.4-1.8-5-3.4-7.9-4.5c-5-2.2-10.1-3.4-14.3-3c-1.2,0.2-2.2,1.3-2,2.5l0.5,3.5c-2.5-1.3-5.2-2.2-8.1-2.7
		c-4.9-0.8-9.4-1-12.6,0.5c-0.8,0.3-1.3,1.3-1.2,2.4l0.5,3.7c-1.8-0.7-3.7-1.3-5.4-1.5c-1-0.2-2,0.3-2.4,1.3c-0.3,0.8,0,2,0.8,2.7
		c4.4,3,27.4,20.8,47.2,66.1c17.3,39.7,11.9,85,9.1,102c-4-1-8.6-1.8-13.8-2c-2.4,0-4.5,0-6.9,0.3c5.9-28.9,6.7-65-1.5-96.1
		c-9.2-34.1-42.2-66.2-44.5-68.4c-1-1.2-3.2-1.5-4.4-0.2c-2.5,2.9-4,6.4-4.9,10.8l-3.4-3.2c-0.7-0.7-1.7-0.8-2.5-0.3
		c-3.4,1.8-6.4,6.1-8.7,11.1c-1.5,3-2.5,6.4-3,9.6l-3.2-3.2c-0.8-0.8-2.4-0.7-3.2,0.2c-3,3.5-5.2,8.9-6.6,15
		c-0.2,0.7-0.3,1.5-0.3,2.2v-37.1H56.9z M351.4,169.3l-4.4-3.9c-0.3-0.3-0.8-0.5-1.3-0.5s-1.2,0.2-1.5,0.5l-4.4,3.9h-24.5l-5-4.5
		c-0.5-0.3-1-0.7-1.7-0.5c-0.5,0-1,0.2-1.3,0.5l-5,4.5h-25.7v-7.9c0-1.2-1-2.2-2.2-2.2h-49.4h-0.2c-1,0.2-2,1.2-2,2.2v7.9h-25.2
		l-4.4-3.9c-0.3-0.3-0.8-0.5-1.3-0.5s-1.2,0.2-1.5,0.5l-4.4,3.9h-5.5c-8.7-5.5-19.8-9.4-33.6-8.2c-4.5,0.3-8.6,1.2-12.4,2.4
		c0.2-2.7,0.5-5.4,0.8-8.1c3.5-1.2,7.2-1.7,10.1-1.3c1,0.2,2-0.5,2.4-1.3c0.3-0.8,0-2-0.8-2.5l-4.5-3c0.3-0.2,0.3-0.3,0.7-0.5
		c1.3-0.8,3-1.8,5-2.5c3.9-1.7,8.2-2.7,11.3-2c1,0.2,2-0.3,2.4-1.3c0.3-1,0-2.2-0.8-2.7l-5.5-3.9c5-4.4,11.4-6.6,22.5-7.2
		c1,0,1.8-0.8,2-1.8c0.2-1-0.3-2-1.2-2.4c-3.2-1.5-4-1.7-10.3-3.5H168l0,0h-0.2c-0.2,0-0.5-0.2-1-0.2c-0.8-0.2-2-0.5-3.5-0.7
		c-3-0.5-7.4-1-12.4-0.8l0,0l0,0c-1,0-2.2,0-3.2,0.2C167,80.8,205.6,56,250,56c63.4,0,114.6,50.8,115.6,114h-14.3V169.3z
		 M371.2,173.6v68.6h-17.5v-68.6L371.2,173.6L371.2,173.6z M349.2,173.3v68.2h-7.6v-68.2l3.9-3.4L349.2,173.3z M327.2,222.7h-5.4
		v-16.8c-1.8-3.2-3.4-5.5-5-7.6c0,0,0-0.2-0.2-0.2v-24.7h20.5V242h-7.9v-17.3C329.5,223.9,328.3,222.7,327.2,222.7z M300.8,314.8
		c0.3-0.7,0.3-1.5,0-2.2l-24.9-42.9c-0.3-0.7-1.2-1.2-1.8-1.2h-5c-0.2,0-0.3,0-0.5,0h-38.3h-5.7c-0.3,0-0.7,0-1,0.2
		c-0.3,0.2-0.7,0.5-0.8,0.8l-24.7,42.9c-0.3,0.7-0.3,1.5,0,2.2l23.4,40.3h-28.4V244.4c0-1.2-1-2.2-2.2-2.2h-16.8v-15.1l0,0h151.3
		v15.1h-16.8h-0.2c-1,0.2-2,1.2-2,2.2V355h-28.4L300.8,314.8z M273,354.3h-2.2V273h2l23.5,40.7L273,354.3z M266.5,273v81.3h-34V273
		H266.5z M228.2,273v81.3h-2l-23.5-40.7L226,273L228.2,273L228.2,273z M163.1,272.3h6.4v26.6C168,290.3,166,281.2,163.1,272.3z
		 M171.3,333.6c0.2,0,0.2,0,0.2,0c1.2,0,2.2-1,2.2-2.2v-61.3c0-1.2-1-2.2-2.2-2.2h-10.1c-0.8-2-1.5-4.2-2.5-6.2
		c-2.4-5.5-4.9-10.6-7.2-15.1h36.8v108.6H170C170.7,348.9,171.2,341.7,171.3,333.6z M150.8,240.9v-48.2c2.9,1.3,5.4,2.9,7.6,4.7V241
		h-7.6V240.9z M164.3,193.1c0.3,0,0.3,0,0.8,0.2c1.5,0.3,3.4,1,5.4,1.8c3.7,1.5,7.4,4,9.1,6.6c-1,1.3-1.8,2.5-2.5,4.4v16.8h-5.4
		h-0.2c-1,0.2-2,1.2-2,2.2v17.3h-6.7v-41.2c0.3,0,0.8,0,1.2-0.2c0.8-0.3,1.5-1.3,1.3-2.4L164.3,193.1z M281.8,182.9
		c4.4,0.7,10.3,2.2,17.5,6.4c2.2,1.3,4.2,2.9,5.7,3.7c3.2,2.4,5.7,4.9,7.6,6.9c1.2,1.5,1.8,2.7,2.4,3.9h-24.4
		c-0.8-4.5-4-9.1-8.4-13.3c-3.2-2.9-6.9-5.7-11.4-8.1C270.5,182.4,279.6,182.7,281.8,182.9z M276.4,178.2v-4.5l0,0h24v11.4
		c-7.2-4-13.4-5.7-18-6.4c-2.4-0.3-4.2-0.5-5.5-0.5C276.6,178.2,276.6,178.2,276.4,178.2z M304.8,187.6v-15l3.9-3.4l3.7,3.4v20.8
		C310.3,191.6,307.8,189.6,304.8,187.6z M317.6,208.1v14.5h-26.9v-14.5H317.6z M286.3,208.1v14.5h-73.8v-14.5H286.3z M212.9,203.7
		c0.8-2.9,3.2-6.6,6.9-10.1c4.7-4.4,15.3-11.3,19.3-11.3h20.5c3.7,0,14.6,6.9,19.3,11.3c3.7,3.5,6.1,7.1,6.9,10.1H212.9z M272,178
		h-45v-14.5h45V178z M228.3,182.4c-4.4,2.4-8.2,5.2-11.4,8.1c-4.5,4.2-7.6,8.7-8.4,13.3H207c0.2-0.5,0.2-0.8,0-1.3
		c-1.2-3.2-1.5-4.2-4.5-9.9l0,0c0,0-0.7-1.3-2.2-3.5c6.9-3.9,12.8-5.4,16.8-6.1C219.9,182.5,228.3,182.4,228.3,182.4z M222.6,178.2
		c-0.2,0-0.2,0-0.3,0c-1.3,0-3.2,0.2-5.5,0.5c-4.4,0.7-10.1,2.2-17,5.7v-10.8h23v4.5H222.6z M202.3,203.7h-18.7
		c0.5-0.8,1-1.7,1.8-2.7c1.3-1.5,3-3.4,5.2-5.4C194.2,197.3,198.1,199.8,202.3,203.7z M208.2,208.1v14.5h-26.9v-14.5H208.2z
		 M195.2,173.3v9.1c-2-2.4-4.5-5-7.6-7.6v-1.5l3.9-3.4L195.2,173.3z M130.2,157c-0.3,2.5-0.5,5.2-0.7,7.9c-0.5,0.2-1,0.3-1.5,0.7
		l-0.2-0.2l-4.9-3.5C124.8,160,127.3,158.3,130.2,157z M140.6,189.9c1.7,0.2,3.7,0.5,5.9,1.2V237c-6.6-11.3-12.9-19.8-18.7-26.4
		v-17.5c4.2,0.8,8.1,2.5,9.7,4.7c0.5,0.8,1.7,1,2.5,0.7c0.8-0.3,1.5-1.3,1.3-2.4L140.6,189.9z M118.9,193c1.2-0.2,2.7-0.3,4.4-0.3
		v13.1c-1.7-1.7-3.2-3.4-4.7-4.7c0.7-0.5,1.2-1.3,1-2.2L118.9,193z M74.7,231.8c-0.8-3,0.2-8.1,2.4-12.4c1.8-3.7,4.2-6.6,5.9-8.1
		l5,4.9c0.7,0.7,1.7,0.8,2.4,0.3c0.8-0.3,1.3-1.2,1.3-2c-0.2-3.9,1.5-7.6,3.5-10.8c3.4,3.4,16.8,17.1,28.1,34.8v3.7H61.1
		c0.2-0.7,0.3-1.5,0.3-2.2c1-4.4,2.7-8.2,4.4-10.9L71,234c0.7,0.7,1.8,0.8,2.7,0.3C74.5,233.8,75,232.8,74.7,231.8z M56.9,256.8l1,1
		c0.7,0.7,1.8,0.8,2.7,0.3s1.2-1.7,1-2.5c-0.7-2.5-1-5.7-0.8-8.9h67.4c3.9,7.1,7.2,14.8,9.4,22.4c7.4,27.2,7.4,59.3,3,86.2H56.9
		L56.9,256.8L56.9,256.8z M441.9,361.4L249.5,472.5L56.9,361.4v-1.8h82.9c-0.3,1.7-0.7,3.5-1,5.2c-15.6,3.2-28.6,12.6-28.6,12.6
		c-1,0.7-1.3,2.2-0.7,3.2c0.7,1,2.2,1.2,3.2,0.3c29.2-20.7,53.6-10.9,65-5c7.4,3.7,14.6,7.6,25.2,7.2c1.2,0,2.2-1.2,2.2-2.2
		c0-1.2-1.2-2.2-2.2-2.2c-9.7,0.3-15.8-3-23.2-6.7c-3.5-1.7-7.2-3.5-11.6-5c0.3-2,0.7-4.5,1.2-7.4h272.6V361.4z M441.9,355H310.3
		V246.6h131.6V355z M441.9,242.2h-66.4v-70.8c0-1.2-1-2.2-2.2-2.2h-3.9c-0.8-65.6-54.3-118.3-120-118.3l0,0
		c-47.1,0-87.9,27.2-107.6,66.7c-11.6,1.7-25.2,6.7-35.6,19.7c-14.6,18-14.8,36.8-12.8,48.2c0.5,3,1.2,5.4,1.7,7.2
		c-2.2-0.3-5-0.5-8.7-0.5c-7.9,0-18.7,1.5-29.6,7.1V139L249.5,27.7L441.9,139V242.2z"/>
	<path fill="#FFFFFF" d="M183.6,134c-0.8,0-1.5,0.7-1.5,1.5v7.4l-6.2-8.1c-0.5-0.5-0.8-1-1.7-1h-0.3c-0.8,0-1.7,0.7-1.7,1.7v11.6
		c0,1,0.7,1.7,1.5,1.7l0,0c0.8,0,1.5-0.7,1.5-1.5v-7.7l6.4,8.4c0.5,0.5,0.8,1,1.7,1h0.2c0.8,0,1.7-0.7,1.7-1.7v-11.6
		C185.1,134.6,184.5,134,183.6,134z"/>
	<path fill="#FFFFFF" d="M195.9,134c-4.5,0-7.7,3.4-7.7,7.4c0,4.2,3.2,7.4,7.7,7.4c4.5,0,7.7-3.4,7.7-7.4
		C203.4,137.2,200.3,134,195.9,134z M195.9,146.1c-2.7-0.2-4.4-2-4.4-4.5c0-2.5,1.7-4.5,4.4-4.5c2.5,0,4.4,2,4.4,4.5
		C200.3,144,198.4,146.1,195.9,146.1z"/>
	<path fill="#FFFFFF" d="M211.9,134.1h-4c-0.8,0-1.7,0.7-1.7,1.7v11.3c0.2,1,0.8,1.7,1.7,1.7l0,0h4c4.5,0,7.7-3.2,7.7-7.2
		S216.4,134.1,211.9,134.1z M211.9,145.7h-2.4V137h2.4c2.7,0,4.4,1.7,4.4,4.4C216.4,143.9,214.5,145.7,211.9,145.7z"/>
	<path fill="#FFFFFF" d="M232.2,145.7h-6.6v-3h5.5c0.8,0,1.3-0.7,1.3-1.3c0-0.8-0.7-1.3-1.3-1.3h-5.5v-3h6.4c0.8,0,1.3-0.7,1.3-1.3
		c0-0.7-0.7-1.3-1.3-1.3H224c-0.8,0-1.7,0.7-1.7,1.7v11.3c0.2,1,0.8,1.7,1.7,1.7l0,0h8.1c0.8,0,1.3-0.7,1.3-1.3
		C233.4,146.9,233,145.7,232.2,145.7z"/>
	<path fill="#FFFFFF" d="M242.4,140c-2.5-0.7-3.2-1-3.2-1.8c0-0.7,0.7-1.3,1.8-1.3c1,0,2,0.3,3,1c0.2,0.2,0.5,0.2,0.8,0.2
		c0.8,0,1.5-0.7,1.5-1.3c0-0.7-0.3-1.2-0.7-1.3c-1.3-0.8-2.9-1.3-4.5-1.3c-3,0-5,1.7-5,4.4c0,2.9,1.8,3.7,4.9,4.4c2.4,0.7,3,1,3,1.8
		c0,0.8-0.8,1.3-2,1.3c-1.3,0-2.7-0.5-3.7-1.3c-0.2-0.2-0.5-0.3-0.8-0.3c-0.8,0-1.5,0.7-1.5,1.3c-0.2,0.8,0.2,1.2,0.5,1.3l0,0
		c1.7,1.2,3.5,1.7,5.5,1.7c3.2,0,5.4-1.7,5.4-4.5C247,141.9,245.3,140.7,242.4,140z"/>
	<path fill="#FFFFFF" d="M260.6,144.4c-0.3,0-0.7,0.2-1,0.3c-0.8,0.8-1.7,1.2-3.2,1.2c-2.5,0-4.2-2-4.2-4.5c0-2.5,1.7-4.5,4.2-4.5
		c1.2,0,2,0.3,3,1c0.2,0.2,0.5,0.3,1,0.3c0.8,0,1.5-0.7,1.5-1.5c0-0.5-0.3-1-0.7-1.3c-1.2-0.8-2.7-1.3-4.9-1.3
		c-4.5,0-7.6,3.4-7.6,7.4c0.2,4.2,3.4,7.6,7.6,7.6c2.4,0,3.9-0.7,5.2-1.8c0.3-0.2,0.5-0.7,0.5-1.2
		C262.1,145.1,261.4,144.4,260.6,144.4z"/>
	<path fill="#FFFFFF" d="M275.9,134c-0.8,0-1.7,0.7-1.7,1.7v4.2h-5.9v-4.2c0-0.8-0.7-1.7-1.7-1.7c-0.8,0-1.7,0.7-1.7,1.7v11.6
		c0,1,0.7,1.7,1.7,1.7c0.8,0,1.7-0.7,1.7-1.7v-4.4h5.9v4.4c0,0.8,0.7,1.7,1.7,1.7c0.8,0,1.7-0.7,1.7-1.7v-11.6
		C277.6,134.6,276.9,134,275.9,134z"/>
	<path fill="#FFFFFF" d="M287.8,134c-4.5,0-7.7,3.4-7.7,7.4c0.2,4.2,3.4,7.4,7.7,7.4s7.7-3.4,7.7-7.4
		C295.6,137.2,292.4,134,287.8,134z M287.8,146.1c-2.5-0.2-4.4-2-4.4-4.5c0-2.5,1.7-4.5,4.4-4.5c2.5,0,4.4,2,4.4,4.5
		C292.2,144,290.5,146.1,287.8,146.1z"/>
	<path fill="#FFFFFF" d="M305.6,134c-4.5,0-7.7,3.4-7.7,7.4c0,4.2,3.2,7.4,7.7,7.4c4.5,0,7.7-3.4,7.7-7.4
		C313.2,137.2,310,134,305.6,134z M305.5,146.1c-2.5-0.2-4.4-2-4.4-4.5c0-2.5,1.7-4.5,4.4-4.5c2.5,0,4.4,2,4.4,4.5
		C309.8,144,308.2,146.1,305.5,146.1z"/>
	<path fill="#FFFFFF" d="M325.1,145.7h-5.9v-10.1c0-0.8-0.7-1.7-1.7-1.7c-0.8,0-1.7,0.7-1.7,1.7v11.3c0.2,1,0.8,1.7,1.7,1.7l0,0h7.4
		c0.8,0,1.3-0.7,1.3-1.3C326.3,146.6,325.8,145.7,325.1,145.7z"/>
</g>
</svg>
